<?xml version="1.0" standalone="no"?>
<!DOCTYPE svg PUBLIC "-//W3C//DTD SVG 20010904//EN"
 "http://www.w3.org/TR/2001/REC-SVG-20010904/DTD/svg10.dtd">
<svg version="1.0" xmlns="http://www.w3.org/2000/svg"
 width="300.000000pt" height="300.000000pt" viewBox="0 0 300.000000 300.000000"
 preserveAspectRatio="xMidYMid meet">
<metadata>
Created by potrace 1.10, written by Peter Selinger 2001-2011
</metadata>
<g transform="translate(0.000000,300.000000) scale(0.100000,-0.100000)"
fill="#000000" stroke="none">
<path d="M1275 2802 c-60 -9 -144 -55 -210 -116 l-48 -45 7 -102 c3 -56 9
-106 13 -112 9 -14 54 90 46 109 -5 13 -7 13 -23 -1 -23 -21 -30 -10 -30 44 0
51 18 86 49 94 19 5 19 3 -4 -27 -31 -41 -31 -43 -1 -43 14 0 35 11 48 25 21
23 21 25 3 18 -17 -6 -16 -4 5 17 13 13 33 24 43 24 14 2 12 -5 -14 -39 -18
-22 -39 -42 -46 -45 -11 -4 -12 -8 -3 -13 9 -5 9 -9 1 -14 -6 -4 -11 -3 -11 2
0 5 -10 8 -22 7 -30 -2 -30 -30 -1 -29 15 1 20 -3 15 -14 -3 -8 -1 -13 4 -10
14 9 6 -408 -9 -462 -8 -31 -12 -166 -12 -445 -1 -321 -4 -419 -18 -495 -17
-100 -47 -201 -77 -260 -27 -52 -89 -105 -140 -119 -25 -7 -62 -24 -82 -38
-31 -21 -38 -32 -38 -60 0 -23 5 -35 18 -39 9 -3 24 -9 32 -14 9 -4 43 -11 77
-15 46 -5 68 -3 89 9 41 22 124 103 124 120 0 27 79 200 118 256 74 110 148
163 243 175 50 6 61 4 115 -25 32 -17 76 -48 97 -68 78 -76 128 -334 88 -459
-27 -86 6 -152 79 -160 87 -9 160 48 160 126 0 18 -12 101 -26 185 -37 212
-30 305 42 544 36 121 40 142 24 142 -5 0 -10 -11 -10 -24 0 -13 -15 -73 -34
-133 -60 -191 -71 -388 -31 -563 21 -94 20 -192 -3 -220 -18 -23 -18 -22 -14
37 3 38 0 63 -7 67 -8 5 -11 -13 -11 -57 0 -71 -8 -83 -57 -93 l-31 -6 9 43
c10 54 11 105 2 96 -3 -4 -10 -32 -14 -63 -9 -66 -11 -69 -38 -55 -27 15 -40
66 -28 116 5 22 12 85 14 139 4 90 2 108 -27 200 -37 116 -75 165 -170 217
-49 27 -62 30 -120 26 -109 -7 -181 -54 -259 -171 -41 -61 -131 -249 -131
-274 0 -17 -108 -111 -135 -118 -63 -16 -97 36 -53 83 12 13 17 23 10 23 -21
0 -53 -53 -47 -78 5 -21 3 -23 -12 -17 -10 4 -30 12 -45 17 -60 22 -12 87 83
114 35 10 69 28 92 51 40 37 97 139 97 173 0 11 4 20 8 20 5 0 9 6 9 13 1 6 6
39 12 72 26 135 32 242 29 475 -4 346 -1 465 14 508 9 26 13 106 14 262 1 124
3 236 6 250 4 24 120 182 152 209 8 7 19 10 25 7 5 -3 11 0 14 6 3 10 30 12
100 11 83 -1 105 -6 159 -31 123 -57 172 -182 158 -400 -2 -29 -7 -55 -10 -57
-10 -6 3 -74 20 -105 7 -14 29 -47 49 -75 19 -28 36 -63 36 -80 3 -71 5 -88
11 -83 3 3 24 -14 47 -39 23 -25 65 -63 93 -83 27 -21 84 -72 126 -114 68 -68
79 -83 98 -146 31 -101 26 -222 -13 -301 -34 -69 -103 -161 -195 -259 -39 -41
-69 -76 -66 -79 6 -6 144 139 198 209 116 149 142 291 84 453 -17 48 -38 75
-110 148 -48 49 -101 95 -116 103 -15 8 -51 39 -80 69 -45 48 -52 61 -52 95 0
30 -11 55 -46 108 -88 130 -94 168 -33 209 57 40 100 98 103 140 2 20 7 39 11
43 4 4 4 -4 0 -17 -5 -16 -4 -21 4 -17 48 30 -46 149 -165 209 -28 14 -56 33
-63 41 -8 9 -18 16 -23 16 -6 0 -32 11 -58 24 -39 20 -69 26 -152 29 -57 3
-125 2 -153 -1z m0 -21 c-3 -5 -18 -12 -35 -16 -16 -3 -46 -19 -67 -34 -21
-15 -47 -30 -57 -35 -19 -7 -19 -6 -1 14 33 36 179 101 160 71z m457 -141 c-2
-16 0 -30 5 -30 31 0 47 -252 17 -264 -12 -5 -14 8 -8 82 5 73 3 97 -14 147
-14 42 -18 65 -11 77 14 25 16 22 11 -12z m140 -117 c-6 -15 -8 -13 -10 10 -4
32 -18 35 -28 5 -6 -18 -8 -19 -15 -5 -5 9 -7 28 -3 43 l7 27 28 -31 c20 -22
26 -37 21 -49z"/>
<path d="M1340 2730 c-12 -9 -9 -11 15 -7 17 3 50 2 75 -3 82 -16 123 -19 114
-11 -5 5 -27 11 -49 14 -118 16 -141 17 -155 7z"/>
<path d="M1283 2674 c-23 -9 -62 -33 -87 -55 l-46 -41 0 -68 c0 -39 5 -72 11
-76 6 -3 23 6 38 20 33 32 37 59 8 50 -13 -4 -17 -2 -13 5 4 6 15 11 24 11 13
0 12 3 -6 16 -26 18 -29 55 -4 76 22 20 77 34 67 17 -5 -7 -1 -9 13 -5 23 8
34 -11 25 -43 -7 -27 -21 -27 -25 1 -2 12 -9 23 -16 26 -12 4 -12 0 -2 -19 7
-13 9 -21 5 -17 -5 4 -14 3 -20 -2 -9 -8 -14 -6 -18 4 -4 10 -1 13 8 10 9 -4
13 1 12 15 -1 24 -2 24 -28 11 -20 -11 -27 -50 -8 -50 5 0 8 -4 5 -9 -3 -5 1
-12 10 -15 22 -8 26 -8 19 4 -3 6 -2 10 4 10 22 0 20 -20 -2 -25 -22 -6 -35
-35 -15 -35 17 0 110 105 125 139 14 32 13 36 -3 48 -22 16 -28 15 -81 -3z"/>
<path d="M1415 2649 c11 -17 -4 -59 -21 -59 -8 0 -12 -5 -9 -10 4 -7 13 -7 26
0 21 12 28 80 8 80 -5 0 -7 -5 -4 -11z"/>
<path d="M1540 2647 c-43 -21 -39 -66 16 -175 26 -51 53 -96 60 -99 21 -8 73
38 85 74 25 78 -12 154 -98 197 -38 19 -32 19 -63 3z m95 -33 c18 -13 17 -14
-15 -13 -19 0 -29 3 -21 6 10 4 8 9 -10 20 l-24 14 25 -7 c14 -4 34 -13 45
-20z m12 -30 c-3 -4 0 -13 8 -21 20 -19 20 -82 0 -89 -8 -4 -13 -10 -10 -14 3
-5 0 -12 -6 -16 -6 -3 -15 -1 -19 6 -4 7 -15 10 -25 7 -9 -4 -14 -3 -11 2 3 5
-1 14 -9 21 -8 7 -15 19 -15 27 0 8 -5 11 -10 8 -6 -4 -5 4 1 19 8 16 27 31
53 40 49 17 51 18 43 10z"/>
<path d="M1582 2548 c-29 -29 -5 -68 41 -68 24 0 28 3 24 20 -3 10 0 21 5 22
15 5 -20 38 -41 38 -9 0 -22 -5 -29 -12z"/>
<path d="M1464 2623 c-7 -28 4 -54 27 -61 9 -3 8 2 -5 17 -16 17 -17 25 -8 46
7 15 8 25 2 25 -5 0 -13 -12 -16 -27z"/>
<path d="M1346 2534 c-14 -14 -22 -44 -12 -44 20 0 33 14 29 31 -8 29 31 25
45 -6 6 -14 17 -25 23 -25 8 0 8 4 0 14 -9 11 -9 16 0 22 8 5 9 3 4 -6 -6 -10
-4 -12 8 -7 13 5 17 1 17 -19 0 -20 -4 -25 -16 -20 -9 3 -19 6 -23 6 -4 0 -13
11 -19 25 -6 14 -17 25 -24 24 -10 0 -10 -2 0 -6 6 -2 12 -13 12 -23 0 -13 -5
-17 -20 -13 -14 4 -20 0 -20 -11 0 -12 8 -15 32 -12 29 4 31 3 14 -10 -11 -7
-23 -11 -29 -7 -6 3 -7 1 -3 -5 4 -7 1 -12 -9 -12 -10 0 -13 -5 -9 -12 5 -7 2
-9 -8 -6 -9 4 -15 0 -15 -8 0 -9 8 -12 25 -7 16 4 23 2 19 -4 -4 -6 -22 -13
-42 -16 -19 -3 -50 -17 -68 -31 -19 -14 -37 -23 -40 -19 -13 13 -7 50 11 66
26 24 39 21 17 -3 -27 -30 -29 -53 -4 -40 10 6 18 16 16 22 -1 8 9 12 26 12
16 -1 26 3 24 10 -3 6 7 24 22 40 l26 29 -25 -13 c-13 -7 -33 -22 -43 -34 -18
-21 -18 -21 -2 6 9 15 25 30 36 33 10 4 19 11 19 17 0 11 0 11 -67 -27 -55
-31 -84 -73 -75 -107 6 -25 36 -36 87 -31 74 7 140 0 180 -21 36 -19 54 -20
78 -2 35 27 8 126 -46 165 -13 9 -16 16 -8 24 19 19 12 37 -21 57 -40 24 -101
26 -122 4z m132 -93 c3 -9 9 -19 14 -22 5 -3 -3 -11 -17 -19 -14 -7 -25 -17
-25 -22 0 -11 14 -10 26 1 16 15 54 23 54 12 0 -6 -3 -10 -7 -10 -23 4 -34 -4
-49 -33 -9 -18 -17 -34 -19 -36 -1 -1 -16 3 -34 9 -29 10 -30 12 -14 25 17 13
17 13 -4 14 -25 0 -39 15 -23 25 5 3 10 2 10 -2 0 -5 14 -14 30 -20 35 -13 41
-33 8 -27 -21 4 -21 4 -3 -5 38 -17 46 3 15 37 -12 12 -17 22 -12 22 4 0 17 7
28 16 10 8 12 12 4 8 -13 -7 -13 -6 -1 9 23 28 5 30 -24 3 -27 -25 -52 -35
-41 -17 4 5 -4 7 -16 3 -31 -8 -15 13 22 28 16 7 30 16 30 20 0 14 42 -2 48
-19z m49 -98 c0 -21 -15 -33 -42 -33 -17 0 -17 2 -5 10 8 5 11 10 6 10 -10 0
24 29 35 30 3 0 6 -8 6 -17z"/>
<path d="M1172 2198 c3 -7 38 -25 78 -40 66 -24 84 -27 199 -25 114 2 130 4
165 26 22 14 34 27 27 29 -7 2 -21 -4 -32 -14 -17 -15 -44 -20 -152 -25 -76
-3 -140 -2 -150 3 -10 5 -41 16 -68 24 -27 8 -49 19 -49 24 0 6 -5 10 -11 10
-6 0 -9 -6 -7 -12z"/>
<path d="M1675 1840 c-34 -36 -47 -37 -69 -7 -15 21 -16 21 -30 3 -9 -10 -17
-24 -20 -30 -3 -6 -13 0 -25 14 l-20 25 -31 -32 c-36 -38 -50 -41 -57 -13 -7
27 -19 25 -39 -5 -21 -32 -32 -32 -40 1 -4 17 -10 22 -17 15 -7 -7 -5 -18 7
-35 18 -28 40 -26 57 6 10 18 11 18 29 -4 l19 -23 36 35 c36 34 44 34 58 -3 4
-14 36 4 42 24 7 20 25 27 25 9 0 -5 9 -14 20 -20 16 -8 25 -5 52 19 l32 28
17 -21 c10 -11 21 -17 26 -13 4 5 0 13 -10 18 -9 6 -17 17 -17 24 0 23 -13 18
-45 -15z"/>
<path d="M1165 1828 c8 -37 31 -78 44 -78 5 0 16 18 24 39 21 50 33 58 41 23
8 -37 22 -56 35 -48 14 9 14 27 0 24 -6 -2 -17 12 -23 31 -17 49 -30 48 -55
-4 -25 -52 -38 -51 -47 6 -4 21 -11 39 -16 39 -6 0 -7 -14 -3 -32z"/>
</g>
</svg>
